# File created by Blade
# Date/Time:  Fri Jan 16 19:14:28 2015
# Frame Rate: 120.000 fps
#------------------------------------------------------
:FULLY-SPECIFIED
:DEGREES
698
root 18.829734 35.635900 -23.351347 -164.580903 -0.801431 -178.450331
Spine -32.193691 1.863103 1.272237
Head 27.059444 -1.193000 -1.333585
LeftShoulder -33.203650 -49.372464 58.142133
LeftArm 34.469027 -64.198078 -6.385553
LeftForeArm -8.251763 -0.000000 120.339289
LeftHand -19.478976 -0.000000 -22.358510
LeftHandThumb1 -26.253704 0.000000 33.147579
RightShoulder -22.322777 16.212548 -36.897248
RightArm 38.731859 78.534307 4.582686
RightForeArm -83.789184 -0.000000 136.991851
RightHand -9.979786 -0.000000 41.246827
RightHandThumb1 -24.326973 -0.000000 -32.862282
LeftUpLeg -3.654241 7.302355 0.055331
LeftLeg -7.732599 -0.000000 0.000000
LeftFoot -21.812246 28.261575 -17.081088
LeftToeBase 23.397465 -0.000000 -0.000000
RightUpLeg -5.561932 -9.414546 1.403932
RightLeg -4.189586 -0.000000 0.000000
RightFoot -20.865564 -22.091379 21.043960
RightToeBase 22.509908 -0.000000 -0.000000
699
root 18.830209 35.636246 -23.346152 -164.575715 -0.790678 -178.448647
Spine -32.176056 1.870313 1.266174
Head 27.048637 -1.166658 -1.332291
LeftShoulder -33.224723 -49.385787 58.168202
LeftArm 34.451119 -64.179845 -6.367482
LeftForeArm -8.100140 -0.000000 120.073826
LeftHand -19.419247 -0.000000 -22.495516
LeftHandThumb1 -26.253704 0.000000 33.147579
RightShoulder -22.323739 16.227922 -36.902250
RightArm 38.923873 78.592179 4.824897
RightForeArm -83.797867 -0.000000 136.711417
RightHand -9.950639 0.000000 41.264198
RightHandThumb1 -24.326973 -0.000000 -32.862282
LeftUpLeg -3.665963 7.312467 0.053945
LeftLeg -7.734008 -0.000000 0.000000
LeftFoot -21.802947 28.263909 -17.070056
LeftToeBase 23.398629 -0.000000 -0.000000
RightUpLeg -5.576065 -9.427720 1.408162
RightLeg -4.191598 -0.000000 0.000000
RightFoot -20.846947 -22.077487 21.024894
RightToeBase 22.492512 -0.000000 -0.000000
700
root 18.829425 35.636631 -23.342135 -164.571992 -0.780072 -178.454786
Spine -32.165680 1.883988 1.256907
Head 27.043619 -1.176035 -1.361336
LeftShoulder -33.216851 -49.373979 58.138476
LeftArm 34.520507 -64.166886 -6.431215
LeftForeArm -7.925736 -0.000000 119.796262
LeftHand -19.404620 -0.000000 -22.479581
LeftHandThumb1 -26.253704 0.000000 33.147579
RightShoulder -22.331593 16.215147 -36.926221
RightArm 39.089465 78.629286 5.061615
RightForeArm -83.733738 -0.000000 136.397730
RightHand -10.031632 -0.000000 41.199835
RightHandThumb1 -24.326973 -0.000000 -32.862282
LeftUpLeg -3.683541 7.323610 0.042948
LeftLeg -7.717265 -0.000000 0.000000
LeftFoot -21.811453 28.260755 -17.080676
LeftToeBase 23.363753 -0.000000 -0.000000
RightUpLeg -5.588837 -9.435458 1.400491
RightLeg -4.186736 -0.000000 0.000000
RightFoot -20.842227 -22.052141 21.015017
RightToeBase 22.508789 -0.000000 -0.000000
701
root 18.830786 35.636492 -23.337138 -164.564660 -0.773577 -178.451724
Spine -32.151788 1.895629 1.247850
Head 27.022660 -1.163193 -1.364953
LeftShoulder -33.218612 -49.407372 58.154942
LeftArm 34.478022 -64.111617 -6.393542
LeftForeArm -7.784015 -0.000000 119.528910
LeftHand -19.389668 -0.000000 -22.669697
LeftHandThumb1 -26.253704 0.000000 33.147579
RightShoulder -22.329717 16.282276 -36.991632
RightArm 38.705733 78.543689 4.770647
RightForeArm -83.731204 -0.000000 136.108742
RightHand -10.280904 -0.000000 41.284568
RightHandThumb1 -24.326973 -0.000000 -32.862282
LeftUpLeg -3.696014 7.318764 0.045160
LeftLeg -7.722359 -0.000000 0.000000
LeftFoot -21.809750 28.272661 -17.074787
LeftToeBase 23.406915 -0.000000 -0.000000
RightUpLeg -5.607052 -9.434270 1.406519
RightLeg -4.184354 -0.000000 0.000000
RightFoot -20.838363 -22.059153 20.988999
RightToeBase 22.521011 -0.000000 -0.000000
702
root 18.831464 35.636549 -23.333534 -164.563546 -0.772212 -178.452650
Spine -32.135717 1.893524 1.247694
Head 27.004646 -1.141392 -1.371199
LeftShoulder -33.244894 -49.436483 58.186815
LeftArm 34.415947 -64.003048 -6.358241
LeftForeArm -7.588285 0.000000 119.262231
LeftHand -19.419023 -0.000000 -22.565268
LeftHandThumb1 -26.253704 0.000000 33.147579
RightShoulder -22.324647 16.254235 -36.998784
RightArm 38.812770 78.598090 4.940757
RightForeArm -83.723705 0.000000 135.733278
RightHand -10.216358 -0.000000 41.214966
RightHandThumb1 -24.326973 -0.000000 -32.862282
LeftUpLeg -3.701015 7.330897 0.042800
LeftLeg -7.723546 -0.000000 0.000000
LeftFoot -21.799051 28.255207 -17.063845
LeftToeBase 23.412405 -0.000000 -0.000000
RightUpLeg -5.615576 -9.446218 1.408366
RightLeg -4.183472 -0.000000 0.000000
RightFoot -20.833892 -22.046770 20.977212
RightToeBase 22.532129 -0.000000 -0.000000
703
root 18.831724 35.637185 -23.328372 -164.555515 -0.758948 -178.448478
Spine -32.123004 1.912633 1.242169
Head 26.984780 -1.132512 -1.371900
LeftShoulder -33.249850 -49.459648 58.207962
LeftArm 34.396503 -63.989788 -6.353962
LeftForeArm -7.545345 -0.000000 118.915654
LeftHand -19.321889 -0.000000 -22.831626
LeftHandThumb1 -26.253704 0.000000 33.147579
RightShoulder -22.323279 16.262066 -37.010010
RightArm 39.008594 78.666462 5.191799
RightForeArm -83.666302 -0.000000 135.336857
RightHand -10.156834 -0.000000 41.116813
RightHandThumb1 -24.326973 -0.000000 -32.862282
LeftUpLeg -3.720160 7.335660 0.040566
LeftLeg -7.717751 -0.000000 0.000000
LeftFoot -21.794639 28.280032 -17.051018
LeftToeBase 23.392105 -0.000000 -0.000000
RightUpLeg -5.637338 -9.444436 1.412305
RightLeg -4.176693 -0.000000 0.000000
RightFoot -20.818431 -22.028937 20.976524
RightToeBase 22.506640 -0.000000 -0.000000
704
root 18.831996 35.637595 -23.325006 -164.558050 -0.762849 -178.452568
Spine -32.099580 1.908750 1.241914
Head 26.963771 -1.106338 -1.388353
LeftShoulder -33.251094 -49.472844 58.200739
LeftArm 34.407475 -63.934548 -6.369892
LeftForeArm -7.342501 0.000000 118.579657
LeftHand -19.262794 -0.000000 -22.787356
LeftHandThumb1 -26.253704 0.000000 33.147579
RightShoulder -22.316670 16.277682 -37.045418
RightArm 38.965064 78.669468 5.227590
RightForeArm -83.629907 -0.000000 134.936739
RightHand -10.168458 -0.000000 40.981582
RightHandThumb1 -24.326973 -0.000000 -32.862282
LeftUpLeg -3.724564 7.330564 0.038802
LeftLeg -7.714063 -0.000000 0.000000
LeftFoot -21.794535 28.265124 -17.056114
LeftToeBase 23.400775 -0.000000 -0.000000
RightUpLeg -5.641112 -9.456070 1.411177
RightLeg -4.175016 -0.000000 0.000000
RightFoot -20.816740 -22.016217 20.976721
RightToeBase 22.546757 -0.000000 -0.000000
705
root 18.831542 35.637915 -23.322473 -164.559531 -0.762973 -178.453032
Spine -32.080248 1.916782 1.239482
Head 26.931532 -1.103741 -1.394320
LeftShoulder -33.266981 -49.490269 58.227387
LeftArm 34.405762 -63.886574 -6.416018
LeftForeArm -7.200518 -0.000000 118.264819
LeftHand -19.231706 0.000000 -22.958833
LeftHandThumb1 -26.253704 0.000000 33.147579
RightShoulder -22.325583 16.311806 -37.089352
RightArm 39.183383 78.690260 5.511664
RightForeArm -83.593856 -0.000000 134.547894
RightHand -10.125114 -0.000000 41.040664
RightHandThumb1 -24.326973 -0.000000 -32.862282
LeftUpLeg -3.719023 7.300850 0.040510
LeftLeg -7.731808 -0.000000 0.000000
LeftFoot -21.791323 28.305838 -17.067236
LeftToeBase 23.393789 -0.000000 -0.000000
RightUpLeg -5.642726 -9.450171 1.409708
RightLeg -4.177790 -0.000000 0.000000
RightFoot -20.809697 -22.025051 20.967864
RightToeBase 22.486630 -0.000000 -0.000000
706
root 18.830950 35.638396 -23.319808 -164.563224 -0.757749 -178.455284
Spine -32.055660 1.921671 1.226286
Head 26.907434 -1.134524 -1.420051
LeftShoulder -33.272271 -49.516672 58.246248
LeftArm 34.420228 -63.848474 -6.431362
LeftForeArm -7.115067 0.000000 117.914089
LeftHand -19.197443 -0.000000 -23.136915
LeftHandThumb1 -26.253704 0.000000 33.147579
RightShoulder -22.325765 16.337451 -37.114938
RightArm 39.319942 78.704756 5.718592
RightForeArm -83.422730 -0.000000 134.135042
RightHand -10.163180 -0.000000 40.703138
RightHandThumb1 -24.326973 -0.000000 -32.862282
LeftUpLeg -3.727031 7.334937 0.031307
LeftLeg -7.719516 -0.000000 0.000000
LeftFoot -21.785805 28.278740 -17.050694
LeftToeBase 23.443145 -0.000000 -0.000000
RightUpLeg -5.647523 -9.440738 1.405117
RightLeg -4.172920 -0.000000 0.000000
RightFoot -20.809475 -22.030577 20.966276
RightToeBase 22.512982 -0.000000 -0.000000
707
root 18.830069 35.638858 -23.317571 -164.567630 -0.757542 -178.454955
Spine -32.036876 1.933354 1.235701
Head 26.879119 -1.056710 -1.381098
LeftShoulder -33.267419 -49.563098 58.268835
LeftArm 34.266519 -63.754703 -6.316620
LeftForeArm -7.038569 -0.000000 117.604131
LeftHand -19.150356 -0.000000 -23.076504
LeftHandThumb1 -26.253704 0.000000 33.147579
RightShoulder -22.325326 16.337141 -37.147517
RightArm 39.449588 78.699952 5.863204
RightForeArm -83.356819 -0.000000 133.763952
RightHand -10.160293 -0.000000 40.681537
RightHandThumb1 -24.326973 -0.000000 -32.862282
LeftUpLeg -3.727380 7.338135 0.031375
LeftLeg -7.716505 -0.000000 0.000000
LeftFoot -21.784263 28.268334 -17.048577
LeftToeBase 23.434158 -0.000000 -0.000000
RightUpLeg -5.647017 -9.424933 1.401308
RightLeg -4.172907 -0.000000 0.000000
RightFoot -20.805924 -22.048561 20.976523
RightToeBase 22.527795 -0.000000 -0.000000
708
root 18.831040 35.639527 -23.314599 -164.565608 -0.753107 -178.451354
Spine -32.022807 1.950119 1.230763
Head 26.847771 -1.056325 -1.390401
LeftShoulder -33.244923 -49.588505 58.272307
LeftArm 34.207668 -63.713613 -6.271783
LeftForeArm -6.974547 -0.000000 117.299545
LeftHand -19.173802 -0.000000 -23.227628
LeftHandThumb1 -26.253704 0.000000 33.147579
RightShoulder -22.342589 16.297696 -37.148373
RightArm 39.821964 78.782347 6.233629
RightForeArm -83.341697 -0.000000 133.320404
RightHand -9.901968 -0.000000 40.238618
RightHandThumb1 -24.326973 -0.000000 -32.862282
LeftUpLeg -3.729827 7.333312 0.036116
LeftLeg -7.724349 -0.000000 0.000000
LeftFoot -21.763749 28.280160 -17.041314
LeftToeBase 23.383781 -0.000000 -0.000000
RightUpLeg -5.649802 -9.382273 1.401959
RightLeg -4.181597 -0.000000 0.000000
RightFoot -20.808483 -22.079600 20.994157
RightToeBase 22.485212 -0.000000 -0.000000
709
root 18.830865 35.639673 -23.311764 -164.563057 -0.757723 -178.451771
Spine -32.008304 1.946722 1.226674
Head 26.820173 -1.093469 -1.448685
LeftShoulder -33.225376 -49.564408 58.281582
LeftArm 34.135122 -63.705078 -6.232852
LeftForeArm -6.890729 -0.000000 117.002053
LeftHand -19.095235 -0.000000 -23.302422
LeftHandThumb1 -26.253704 0.000000 33.147579
RightShoulder -22.341353 16.267079 -37.147715
RightArm 40.194321 78.858300 6.617562
RightForeArm -83.312663 -0.000000 132.916787
RightHand -9.715759 0.000000 40.310415
RightHandThumb1 -24.326973 -0.000000 -32.862282
LeftUpLeg -3.739644 7.341845 0.033897
LeftLeg -7.721541 -0.000000 0.000000
LeftFoot -21.756837 28.274921 -17.026355
LeftToeBase 23.381669 -0.000000 -0.000000
RightUpLeg -5.657012 -9.374087 1.401266
RightLeg -4.180484 -0.000000 0.000000
RightFoot -20.803835 -22.098642 20.982484
RightToeBase 22.497283 -0.000000 -0.000000
710
root 18.830247 35.640436 -23.308958 -164.563377 -0.763546 -178.454816
Spine -31.988367 1.944252 1.229095
Head 26.761628 -1.077527 -1.432898
LeftShoulder -33.238379 -49.594110 58.319303
LeftArm 34.032678 -63.620271 -6.133685
LeftForeArm -6.854732 -0.000000 116.729118
LeftHand -19.107624 -0.000000 -23.325285
LeftHandThumb1 -26.253704 0.000000 33.147579
RightShoulder -22.342741 16.298572 -37.220177
RightArm 40.104346 78.834458 6.607359
RightForeArm -83.272800 -0.000000 132.613417
RightHand -9.719467 -0.000000 40.402059
RightHandThumb1 -24.326973 -0.000000 -32.862282
LeftUpLeg -3.744443 7.350339 0.029514
LeftLeg -7.724055 -0.000000 0.000000
LeftFoot -21.750114 28.258160 -17.030330
LeftToeBase 23.403431 -0.000000 -0.000000
RightUpLeg -5.669349 -9.393751 1.402162
RightLeg -4.166170 -0.000000 0.000000
RightFoot -20.804235 -22.088529 20.984345
RightToeBase 22.477294 -0.000000 -0.000000
